<?xml version="1.0" standalone="no"?>
<!DOCTYPE svg PUBLIC "-//W3C//DTD SVG 20010904//EN"
 "http://www.w3.org/TR/2001/REC-SVG-20010904/DTD/svg10.dtd">
<svg version="1.0" xmlns="http://www.w3.org/2000/svg"
 width="1200.000000pt" height="1200.000000pt" viewBox="0 0 1200.000000 1200.000000"
 preserveAspectRatio="xMidYMid meet">

<g transform="translate(0.000000,1200.000000) scale(0.100000,-0.100000)"
fill="#000000" stroke="none">
<path d="M0 6000 l0 -6000 6000 0 6000 0 0 6000 0 6000 -6000 0 -6000 0 0
-6000z m6000 2892 l0 -588 23 0 c55 -1 185 -16 246 -29 291 -62 575 -258 747
-515 98 -148 171 -330 190 -475 3 -27 8 -53 11 -58 6 -11 5 -245 -2 -292 -49
-331 -191 -590 -435 -796 -113 -94 -248 -169 -397 -220 -76 -25 -110 -33 -226
-53 -16 -3 -58 -6 -93 -7 l-64 -2 0 -590 0 -590 -122 6 c-524 25 -1034 228
-1434 570 -379 324 -650 756 -769 1227 -87 342 -99 710 -34 1050 174 912 864
1645 1769 1878 96 25 197 42 380 65 14 2 67 4 118 6 l92 2 0 -589z m-1299
-5162 c18 -10 19 -27 19 -556 0 -343 4 -581 11 -641 14 -113 11 -118 -77 -129
-66 -8 -80 2 -96 63 l-11 44 -30 -37 c-37 -44 -117 -84 -173 -84 -53 0 -135
42 -169 86 -68 89 -105 228 -105 395 0 284 115 469 292 469 46 0 122 -27 144
-51 9 -10 21 -19 26 -19 4 0 8 101 8 225 0 225 0 226 23 235 31 12 114 12 138
0z m2282 -2 c15 -12 17 -64 19 -579 3 -549 4 -568 23 -589 16 -18 26 -21 61
-15 38 5 42 4 52 -22 32 -80 23 -103 -46 -123 -50 -13 -99 -12 -145 4 -48 18
-73 40 -101 91 -21 39 -21 49 -24 625 l-3 585 22 18 c25 20 116 24 142 5z
m-4097 -407 c51 -23 81 -53 108 -111 20 -43 21 -62 24 -410 3 -364 3 -365 -18
-382 -30 -24 -120 -24 -149 0 -20 17 -21 26 -23 365 l-3 349 -34 30 c-29 26
-40 30 -76 26 -48 -6 -83 -28 -114 -74 -20 -29 -21 -41 -21 -355 0 -179 -4
-330 -9 -338 -14 -22 -130 -27 -156 -8 -19 14 -19 29 -21 373 0 198 -4 394 -8
436 -9 89 -6 92 82 104 62 8 79 -3 88 -55 10 -55 13 -56 58 -13 62 60 108 80
186 81 25 0 63 -8 86 -18z m2742 -4 c9 -7 12 -29 10 -66 l-3 -56 -57 -3 c-62
-3 -63 -4 -48 -33 22 -39 31 -127 21 -184 -13 -71 -34 -114 -73 -154 -47 -48
-98 -70 -188 -80 -102 -11 -133 -34 -128 -95 4 -55 32 -72 171 -100 198 -41
259 -95 265 -235 3 -68 1 -82 -25 -130 -38 -72 -99 -114 -200 -137 -91 -20
-231 -15 -307 12 -167 58 -195 270 -51 390 44 38 45 38 26 59 -58 61 -53 176
11 245 29 32 29 32 8 47 -75 53 -104 120 -104 238 0 159 60 248 199 291 48 15
452 7 473 -9z m551 7 c66 -19 132 -78 166 -148 29 -60 55 -184 55 -266 0 -50
-4 -62 -29 -89 l-29 -31 -212 0 -213 0 7 -52 c4 -29 18 -76 32 -105 48 -100
166 -122 296 -54 l63 33 26 -32 c46 -54 47 -80 5 -116 -55 -48 -133 -69 -253
-69 -95 1 -105 2 -169 35 -84 43 -135 106 -167 205 -19 60 -22 92 -22 230 0
142 3 168 24 234 28 84 68 142 128 185 77 53 193 70 292 40z m1546 -13 c136
-60 205 -214 205 -453 0 -174 -35 -290 -109 -371 -62 -67 -126 -92 -236 -92
-110 0 -174 25 -236 92 -75 82 -109 197 -109 378 0 262 83 415 250 462 64 18
174 11 235 -16z m850 0 c136 -60 205 -214 205 -453 0 -174 -35 -290 -109 -371
-62 -67 -126 -92 -236 -92 -110 0 -174 25 -236 92 -75 82 -109 197 -109 378 0
262 83 415 250 462 64 18 174 11 235 -16z m882 4 c76 -38 125 -111 159 -236
26 -92 26 -350 0 -434 -53 -173 -136 -249 -272 -250 -63 0 -77 4 -122 32 l-52
32 0 -197 c0 -108 -4 -203 -9 -211 -12 -19 -121 -27 -150 -12 l-21 12 0 525
c0 328 -4 562 -11 621 -14 113 -11 118 77 129 64 8 81 -2 90 -55 4 -20 8 -39
10 -43 3 -3 23 14 47 38 72 76 164 94 254 49z m-6052 1 c19 -13 20 -31 20
-348 1 -364 4 -387 56 -413 57 -30 112 -13 168 50 l31 36 0 334 c0 381 -7 355
90 355 97 0 90 27 90 -361 0 -187 5 -383 11 -436 12 -114 10 -118 -77 -129
-65 -8 -80 2 -95 63 l-11 43 -43 -39 c-55 -51 -95 -71 -155 -78 -110 -13 -204
46 -234 146 -13 46 -16 112 -16 405 0 193 4 356 8 362 11 17 32 22 88 23 28 1
58 -5 69 -13z"/>
<path d="M4364 3180 c-31 -12 -72 -66 -86 -113 -17 -56 -17 -347 -1 -403 28
-92 84 -136 150 -119 15 3 47 27 70 51 l43 44 0 244 c0 268 3 254 -67 290 -35
17 -76 20 -109 6z"/>
<path d="M5181 3193 c-21 -10 -39 -30 -48 -52 -20 -47 -20 -159 0 -198 43 -82
201 -83 243 -1 19 36 20 157 2 195 -31 65 -124 92 -197 56z"/>
<path d="M5121 2385 c-29 -34 -36 -57 -31 -115 5 -69 77 -105 193 -98 107 7
157 43 157 113 0 69 -39 97 -165 119 -120 21 -118 21 -154 -19z"/>
<path d="M6025 3181 c-53 -23 -92 -96 -102 -191 l-6 -60 153 0 152 0 -7 68
c-8 75 -31 138 -63 166 -24 21 -96 30 -127 17z"/>
<path d="M7524 3175 c-70 -36 -99 -145 -92 -354 4 -125 7 -143 31 -194 21 -41
37 -59 64 -72 77 -37 155 2 190 94 15 38 18 77 18 216 0 190 -11 238 -64 289
-37 35 -101 44 -147 21z"/>
<path d="M8374 3175 c-70 -36 -99 -145 -92 -354 4 -125 7 -143 31 -194 21 -41
37 -59 64 -72 77 -37 155 2 190 94 15 38 18 77 18 216 0 190 -11 238 -64 289
-37 35 -101 44 -147 21z"/>
<path d="M9264 3176 c-17 -8 -45 -31 -62 -52 l-32 -39 0 -241 0 -242 30 -26
c62 -51 143 -45 192 15 73 90 78 430 9 543 -33 53 -79 67 -137 42z"/>
</g>
</svg>
